<svg width="130" height="51" viewBox="0 0 130 51" fill="none" xmlns="http://www.w3.org/2000/svg">
<rect x="0.745413" y="0.745413" width="128.509" height="40.5505" stroke="#E32459" stroke-width="1.49083"/>
<path d="M22.2884 38V10.3303H12.5563V4.60551H38.3178V10.3303H28.5856V38H22.2884ZM44.2758 38V4.60551H50.5731V18.3927H62.9768V4.60551H69.274V38H62.9768V24.1174H50.5731V38H44.2758ZM74.963 38L83.741 4.60551H94.7135L103.491 38H97.0034L95.1905 30.6532H83.2639L81.4511 38H74.963ZM84.7428 24.833H93.7116L89.6566 8.56514H88.7979L84.7428 24.833ZM109.158 38V4.60551H115.456V38H109.158Z" fill="#E32459"/>
<path d="M1.71422 48.0413V44.2367H0.376059V43.4495H3.91826V44.2367H2.5801V48.0413H1.71422ZM4.7375 48.0413V43.4495H6.73163C7.02025 43.4495 7.2717 43.4998 7.48598 43.6004C7.70026 43.701 7.86644 43.8431 7.98452 44.0268C8.10259 44.2104 8.16163 44.4269 8.16163 44.6762V44.7549C8.16163 45.0304 8.09603 45.2534 7.96484 45.424C7.83364 45.5945 7.67184 45.7191 7.47942 45.7979V45.9159C7.65435 45.9247 7.78991 45.9859 7.88612 46.0996C7.98233 46.2089 8.03043 46.3554 8.03043 46.5391V48.0413H7.16456V46.6637C7.16456 46.5588 7.13614 46.4735 7.07929 46.4079C7.02681 46.3423 6.93716 46.3095 6.81034 46.3095H5.60337V48.0413H4.7375ZM5.60337 45.5224H6.63979C6.84533 45.5224 7.00494 45.4677 7.11864 45.3584C7.23672 45.2447 7.29575 45.096 7.29575 44.9123V44.8467C7.29575 44.663 7.2389 44.5166 7.1252 44.4072C7.0115 44.2935 6.8497 44.2367 6.63979 44.2367H5.60337V45.5224ZM9.1117 48.0413V43.4495H9.97757V48.0413H9.1117ZM11.0709 48.0413V43.4495H11.9367V47.2541H14.0358V48.0413H11.0709ZM14.8557 48.0413V43.4495H15.7216V45.3453H17.4271V43.4495H18.293V48.0413H17.4271V46.1324H15.7216V48.0413H14.8557ZM19.0752 48.0413L20.2822 43.4495H21.7909L22.9979 48.0413H22.1058L21.8565 47.0311H20.2166L19.9673 48.0413H19.0752ZM20.4199 46.2308H21.6531L21.0956 43.994H20.9775L20.4199 46.2308ZM25.3711 48.1331C25.0169 48.1331 24.7042 48.0697 24.433 47.9429C24.1619 47.816 23.9498 47.6346 23.7968 47.3984C23.6437 47.1623 23.5672 46.878 23.5672 46.5457V46.362H24.4199V46.5457C24.4199 46.8212 24.5052 47.0289 24.6758 47.1688C24.8463 47.3044 25.0781 47.3722 25.3711 47.3722C25.6684 47.3722 25.8893 47.3131 26.0336 47.1951C26.1823 47.077 26.2566 46.9261 26.2566 46.7425C26.2566 46.6156 26.2195 46.5129 26.1451 46.4341C26.0751 46.3554 25.9702 46.292 25.8303 46.2439C25.6947 46.1914 25.5285 46.1433 25.3317 46.0996L25.1808 46.0668C24.866 45.9968 24.5949 45.9094 24.3675 45.8044C24.1444 45.6951 23.9717 45.553 23.8492 45.378C23.7312 45.2031 23.6721 44.9757 23.6721 44.6958C23.6721 44.416 23.7377 44.1776 23.8689 43.9808C24.0045 43.7797 24.1925 43.6266 24.433 43.5217C24.6779 43.4123 24.9644 43.3577 25.2924 43.3577C25.6203 43.3577 25.9112 43.4145 26.1648 43.5282C26.4228 43.6376 26.624 43.8037 26.7683 44.0268C26.917 44.2454 26.9913 44.5209 26.9913 44.8533V45.0501H26.1386V44.8533C26.1386 44.6784 26.1036 44.5384 26.0336 44.4335C25.968 44.3241 25.8718 44.2454 25.745 44.1973C25.6182 44.1448 25.4673 44.1186 25.2924 44.1186C25.03 44.1186 24.8354 44.1689 24.7086 44.2695C24.5861 44.3657 24.5249 44.4991 24.5249 44.6696C24.5249 44.7833 24.5533 44.8795 24.6102 44.9582C24.6714 45.0369 24.761 45.1025 24.8791 45.155C24.9972 45.2075 25.148 45.2534 25.3317 45.2928L25.4826 45.3256C25.8106 45.3955 26.0948 45.4852 26.3353 45.5945C26.5802 45.7038 26.7705 45.8482 26.906 46.0275C27.0416 46.2067 27.1094 46.4363 27.1094 46.7162C27.1094 46.9961 27.0372 47.2432 26.8929 47.4575C26.753 47.6674 26.5518 47.8335 26.2894 47.956C26.0314 48.0741 25.7253 48.1331 25.3711 48.1331ZM29.7487 48.0413V47.2803H30.3521V44.2104H29.7487V43.4495H31.6378C32.2544 43.4495 32.7224 43.6069 33.0416 43.9218C33.3652 44.2323 33.527 44.6958 33.527 45.3125V46.1783C33.527 46.7949 33.3652 47.2607 33.0416 47.5755C32.7224 47.886 32.2544 48.0413 31.6378 48.0413H29.7487ZM31.218 47.2541H31.651C32.0008 47.2541 32.2566 47.1623 32.4184 46.9786C32.5802 46.7949 32.6611 46.5369 32.6611 46.2046V45.2862C32.6611 44.9495 32.5802 44.6915 32.4184 44.5122C32.2566 44.3285 32.0008 44.2367 31.651 44.2367H31.218V47.2541ZM34.4783 48.0413V43.4495H37.4301V44.2367H35.3441V45.3321H37.2464V46.1193H35.3441V47.2541H37.4694V48.0413H34.4783ZM40.2351 48.0413V43.4495H41.101V45.3453H42.8065V43.4495H43.6723V48.0413H42.8065V46.1324H41.101V48.0413H40.2351ZM44.4546 48.0413L45.6616 43.4495H47.1703L48.3772 48.0413H47.4851L47.2359 47.0311H45.596L45.3467 48.0413H44.4546ZM45.7993 46.2308H47.0325L46.4749 43.994H46.3569L45.7993 46.2308ZM49.0253 48.0413V47.2803H49.6288V44.2104H49.0253V43.4495H51.3867C51.6666 43.4495 51.9093 43.4976 52.1149 43.5938C52.3248 43.6857 52.4866 43.819 52.6003 43.994C52.7183 44.1645 52.7774 44.3701 52.7774 44.6106V44.6762C52.7774 44.8861 52.738 45.0588 52.6593 45.1944C52.5806 45.3256 52.4866 45.4283 52.3772 45.5027C52.2723 45.5727 52.1717 45.6229 52.0755 45.6536V45.7716C52.1717 45.7979 52.2767 45.8482 52.3904 45.9225C52.5041 45.9925 52.6003 46.0952 52.679 46.2308C52.7621 46.3664 52.8036 46.5435 52.8036 46.7621V46.8277C52.8036 47.0814 52.7446 47.3 52.6265 47.4837C52.5084 47.663 52.3444 47.8007 52.1345 47.8969C51.929 47.9932 51.6885 48.0413 51.413 48.0413H49.0253ZM50.4946 47.2541H51.308C51.4961 47.2541 51.6469 47.2082 51.7606 47.1164C51.8787 47.0245 51.9377 46.8933 51.9377 46.7228V46.6572C51.9377 46.4866 51.8809 46.3554 51.7672 46.2636C51.6535 46.1718 51.5004 46.1258 51.308 46.1258H50.4946V47.2541ZM50.4946 45.3387H51.2949C51.4742 45.3387 51.6207 45.2928 51.7344 45.2009C51.8525 45.1091 51.9115 44.9823 51.9115 44.8205V44.7549C51.9115 44.5887 51.8547 44.4619 51.741 44.3744C51.6273 44.2826 51.4786 44.2367 51.2949 44.2367H50.4946V45.3387ZM53.742 48.0413V43.4495H54.6079V48.0413H53.742ZM55.7012 48.0413V43.4495H56.5671V47.2541H58.6662V48.0413H55.7012ZM59.4861 48.0413V43.4495H60.352V48.0413H59.4861ZM61.3141 48.0413V47.2803H61.9176V44.2104H61.3141V43.4495H63.2032C63.8198 43.4495 64.2878 43.6069 64.607 43.9218C64.9306 44.2323 65.0924 44.6958 65.0924 45.3125V46.1783C65.0924 46.7949 64.9306 47.2607 64.607 47.5755C64.2878 47.886 63.8198 48.0413 63.2032 48.0413H61.3141ZM62.7834 47.2541H63.2164C63.5662 47.2541 63.822 47.1623 63.9838 46.9786C64.1456 46.7949 64.2265 46.5369 64.2265 46.2046V45.2862C64.2265 44.9495 64.1456 44.6915 63.9838 44.5122C63.822 44.3285 63.5662 44.2367 63.2164 44.2367H62.7834V47.2541ZM65.6904 48.0413L66.8973 43.4495H68.4061L69.613 48.0413H68.7209L68.4717 47.0311H66.8317L66.5825 48.0413H65.6904ZM67.0351 46.2308H68.2683L67.7107 43.994H67.5927L67.0351 46.2308ZM70.261 48.0413V47.2803H70.8645V44.2104H70.261V43.4495H72.1502C72.7668 43.4495 73.2347 43.6069 73.554 43.9218C73.8776 44.2323 74.0394 44.6958 74.0394 45.3125V46.1783C74.0394 46.7949 73.8776 47.2607 73.554 47.5755C73.2347 47.886 72.7668 48.0413 72.1502 48.0413H70.261ZM71.7304 47.2541H72.1633C72.5132 47.2541 72.769 47.1623 72.9308 46.9786C73.0926 46.7949 73.1735 46.5369 73.1735 46.2046V45.2862C73.1735 44.9495 73.0926 44.6915 72.9308 44.5122C72.769 44.3285 72.5132 44.2367 72.1633 44.2367H71.7304V47.2541ZM74.9906 48.0413V43.4495H77.9425V44.2367H75.8565V45.3321H77.7588V46.1193H75.8565V47.2541H77.9818V48.0413H74.9906ZM80.4464 48.1331C80.0921 48.1331 79.7795 48.0697 79.5083 47.9429C79.2372 47.816 79.0251 47.6346 78.8721 47.3984C78.719 47.1623 78.6425 46.878 78.6425 46.5457V46.362H79.4952V46.5457C79.4952 46.8212 79.5805 47.0289 79.751 47.1688C79.9216 47.3044 80.1534 47.3722 80.4464 47.3722C80.7437 47.3722 80.9646 47.3131 81.1089 47.1951C81.2576 47.077 81.3319 46.9261 81.3319 46.7425C81.3319 46.6156 81.2947 46.5129 81.2204 46.4341C81.1504 46.3554 81.0455 46.292 80.9055 46.2439C80.77 46.1914 80.6038 46.1433 80.407 46.0996L80.2561 46.0668C79.9413 45.9968 79.6701 45.9094 79.4427 45.8044C79.2197 45.6951 79.047 45.553 78.9245 45.378C78.8065 45.2031 78.7474 44.9757 78.7474 44.6958C78.7474 44.416 78.813 44.1776 78.9442 43.9808C79.0798 43.7797 79.2678 43.6266 79.5083 43.5217C79.7532 43.4123 80.0397 43.3577 80.3677 43.3577C80.6956 43.3577 80.9864 43.4145 81.2401 43.5282C81.4981 43.6376 81.6993 43.8037 81.8436 44.0268C81.9923 44.2454 82.0666 44.5209 82.0666 44.8533V45.0501H81.2138V44.8533C81.2138 44.6784 81.1789 44.5384 81.1089 44.4335C81.0433 44.3241 80.9471 44.2454 80.8203 44.1973C80.6934 44.1448 80.5426 44.1186 80.3677 44.1186C80.1053 44.1186 79.9107 44.1689 79.7838 44.2695C79.6614 44.3657 79.6002 44.4991 79.6002 44.6696C79.6002 44.7833 79.6286 44.8795 79.6855 44.9582C79.7467 45.0369 79.8363 45.1025 79.9544 45.155C80.0725 45.2075 80.2233 45.2534 80.407 45.2928L80.5579 45.3256C80.8859 45.3955 81.1701 45.4852 81.4106 45.5945C81.6555 45.7038 81.8458 45.8482 81.9813 46.0275C82.1169 46.2067 82.1847 46.4363 82.1847 46.7162C82.1847 46.9961 82.1125 47.2432 81.9682 47.4575C81.8283 47.6674 81.6271 47.8335 81.3647 47.956C81.1067 48.0741 80.8006 48.1331 80.4464 48.1331ZM84.9551 48.0413V43.4495H85.821V48.0413H84.9551ZM86.9143 48.0413V43.4495H88.5608L89.4726 47.4509H89.5906V43.4495H90.4434V48.0413H88.7969L87.8851 44.0399H87.7671V48.0413H86.9143ZM92.601 48.0413V44.2367H91.2628V43.4495H94.805V44.2367H93.4669V48.0413H92.601ZM95.6243 48.0413V43.4495H98.5761V44.2367H96.4902V45.3321H98.3924V46.1193H96.4902V47.2541H98.6155V48.0413H95.6243ZM99.486 48.0413V43.4495H100.352V47.2541H102.451V48.0413H99.486ZM103.271 48.0413V43.4495H104.137V48.0413H103.271ZM106.817 48.1331C106.503 48.1331 106.216 48.0631 105.958 47.9232C105.705 47.7789 105.501 47.5712 105.348 47.3C105.199 47.0245 105.125 46.69 105.125 46.2964V45.1944C105.125 44.604 105.291 44.1514 105.624 43.8365C105.956 43.5173 106.406 43.3577 106.975 43.3577C107.539 43.3577 107.974 43.5086 108.28 43.8103C108.591 44.1077 108.746 44.5122 108.746 45.0238V45.0501H107.893V44.9976C107.893 44.8358 107.858 44.6893 107.788 44.5581C107.723 44.4269 107.622 44.3241 107.487 44.2498C107.351 44.1711 107.18 44.1317 106.975 44.1317C106.669 44.1317 106.428 44.2257 106.253 44.4138C106.078 44.6018 105.991 44.8577 105.991 45.1813V46.3095C105.991 46.6288 106.078 46.8868 106.253 47.0836C106.428 47.276 106.673 47.3722 106.988 47.3722C107.303 47.3722 107.532 47.2891 107.677 47.1229C107.821 46.9567 107.893 46.7468 107.893 46.4932V46.4276H106.804V45.6929H108.746V48.0413H107.946V47.6018H107.828C107.797 47.6761 107.747 47.7548 107.677 47.8379C107.611 47.921 107.511 47.991 107.375 48.0478C107.239 48.1047 107.054 48.1331 106.817 48.1331ZM109.803 48.0413V43.4495H112.755V44.2367H110.669V45.3321H112.571V46.1193H110.669V47.2541H112.794V48.0413H109.803ZM113.665 48.0413V43.4495H115.311L116.223 47.4509H116.341V43.4495H117.194V48.0413H115.547L114.635 44.0399H114.517V48.0413H113.665ZM119.351 48.0413V44.2367H118.013V43.4495H121.555V44.2367H120.217V48.0413H119.351ZM122.375 48.0413V43.4495H125.326V44.2367H123.24V45.3321H125.143V46.1193H123.24V47.2541H125.366V48.0413H122.375ZM127.83 48.1331C127.476 48.1331 127.163 48.0697 126.892 47.9429C126.621 47.816 126.409 47.6346 126.256 47.3984C126.103 47.1623 126.026 46.878 126.026 46.5457V46.362H126.879V46.5457C126.879 46.8212 126.964 47.0289 127.135 47.1688C127.305 47.3044 127.537 47.3722 127.83 47.3722C128.128 47.3722 128.348 47.3131 128.493 47.1951C128.641 47.077 128.716 46.9261 128.716 46.7425C128.716 46.6156 128.679 46.5129 128.604 46.4341C128.534 46.3554 128.429 46.292 128.289 46.2439C128.154 46.1914 127.988 46.1433 127.791 46.0996L127.64 46.0668C127.325 45.9968 127.054 45.9094 126.827 45.8044C126.604 45.6951 126.431 45.553 126.308 45.378C126.19 45.2031 126.131 44.9757 126.131 44.6958C126.131 44.416 126.197 44.1776 126.328 43.9808C126.464 43.7797 126.652 43.6266 126.892 43.5217C127.137 43.4123 127.424 43.3577 127.752 43.3577C128.079 43.3577 128.37 43.4145 128.624 43.5282C128.882 43.6376 129.083 43.8037 129.227 44.0268C129.376 44.2454 129.45 44.5209 129.45 44.8533V45.0501H128.598V44.8533C128.598 44.6784 128.563 44.5384 128.493 44.4335C128.427 44.3241 128.331 44.2454 128.204 44.1973C128.077 44.1448 127.926 44.1186 127.752 44.1186C127.489 44.1186 127.295 44.1689 127.168 44.2695C127.045 44.3657 126.984 44.4991 126.984 44.6696C126.984 44.7833 127.012 44.8795 127.069 44.9582C127.131 45.0369 127.22 45.1025 127.338 45.155C127.456 45.2075 127.607 45.2534 127.791 45.2928L127.942 45.3256C128.27 45.3955 128.554 45.4852 128.794 45.5945C129.039 45.7038 129.23 45.8482 129.365 46.0275C129.501 46.2067 129.569 46.4363 129.569 46.7162C129.569 46.9961 129.496 47.2432 129.352 47.4575C129.212 47.6674 129.011 47.8335 128.749 47.956C128.491 48.0741 128.184 48.1331 127.83 48.1331Z" fill="#E32459"/>
</svg>
