<svg width="70" height="41" viewBox="0 0 60 36" fill="none" xmlns="http://www.w3.org/2000/svg">
        <path d="M26.9305 11.7555H26.7779L24.84 5.59399H23.2236L25.618 12.7925H28.0892L30.4836 5.59399H28.8673L26.9305 11.7555Z" fill="#E32459"></path>
        <path d="M37.7733 11.0389C37.7733 10.7338 37.7733 10.2006 37.7733 8.1408C37.7733 6.38729 36.6452 5.37988 34.7226 5.37988C32.9845 5.37988 31.8861 6.18865 31.6874 7.60635H33.2127C33.3191 6.99623 33.8843 6.66043 34.7226 6.66043C35.6839 6.66043 36.248 7.1795 36.248 8.10888V8.48961H34.0215C32.4962 8.48961 31.3682 9.35868 31.3682 10.6853C31.3682 12.012 32.4962 13.004 34.0215 13.004C35.0585 13.004 35.8672 12.5464 36.3697 11.753H36.5223C36.5223 12.4093 36.9337 12.79 37.6361 12.79H38.7949V11.5237H38.2616C37.9104 11.5272 37.7733 11.3889 37.7733 11.0389ZM34.3419 11.7708C33.3511 11.7708 32.8935 11.2375 32.8935 10.6723C32.8935 10.0776 33.4267 9.68148 34.1894 9.68148H36.2444C36.2066 10.975 35.4853 11.7708 34.3419 11.7708Z" fill="#E32459"></path>
        <path d="M11.5262 11.7555H11.3737L8.73575 5.59399H5.88379V12.7925H7.40909V6.63096H7.56162L10.1996 12.7925H13.0515V5.59399H11.5262V11.7555Z" fill="#E32459"></path>
        <path d="M18.6026 5.3811C16.3915 5.3811 14.8662 6.95134 14.8662 9.19436C14.8662 11.4374 16.3915 13.0076 18.6026 13.0076C20.8137 13.0076 22.3544 11.4362 22.3544 9.19436C22.3544 6.95252 20.8137 5.3811 18.6026 5.3811ZM18.6026 11.649C17.3221 11.649 16.4211 10.6428 16.4211 9.19318C16.4211 7.74473 17.3209 6.73732 18.6026 6.73732C19.8985 6.73732 20.7983 7.74355 20.7983 9.19318C20.7983 10.6416 19.8985 11.649 18.6026 11.649Z" fill="#E32459"></path>
        <path d="M44.6784 16.9734V0H0V35.3598H60V16.9734H44.6784ZM1.41297 1.41297H43.2654V16.9734H1.41297V1.41297ZM58.587 33.9469H1.41297V18.3864H58.587V33.9469Z" fill="#E32459"></path>
        <path d="M25.844 23.7119C26.8053 23.7119 27.5822 24.2759 27.7501 25.1H29.3203C29.0767 23.4529 27.6732 22.3545 25.8428 22.3545C23.6317 22.3545 22.1064 23.9259 22.1064 26.1678C22.1064 28.4096 23.6317 29.981 25.8428 29.981C27.6732 29.981 29.0755 28.8826 29.3203 27.2355H27.7513C27.5834 28.0596 26.8053 28.6236 25.8452 28.6236C24.5635 28.6236 23.6637 27.6174 23.6637 26.1678C23.6637 24.7181 24.5635 23.7119 25.844 23.7119Z" fill="#E32459"></path>
        <path d="M49.3916 25.4656C47.8663 25.4656 46.7383 26.3346 46.7383 27.6613C46.7383 28.988 47.8663 29.98 49.3916 29.98C50.4286 29.98 51.2373 29.5224 51.7399 28.729H51.8924C51.8924 29.3852 52.3039 29.766 53.0062 29.766H54.2111V28.4996H53.6317C53.2805 28.4996 53.1434 28.3625 53.1434 28.0113C53.1434 27.7062 53.1434 27.173 53.1434 25.1132C53.1434 23.3597 52.0154 22.3523 50.0928 22.3523C48.3546 22.3523 47.2562 23.1611 47.0575 24.5788H48.5828C48.6892 23.984 49.2391 23.6482 50.0928 23.6482C51.0541 23.6482 51.6181 24.1673 51.6181 25.0813V25.462H49.3916V25.4656ZM49.712 28.7444C48.7212 28.7444 48.2636 28.2111 48.2636 27.6459C48.2636 27.0512 48.7968 26.6551 49.5595 26.6551H51.6145C51.5767 27.9486 50.8554 28.7444 49.712 28.7444Z" fill="#E32459"></path>
        <path d="M34.5225 22.3545C32.3114 22.3545 30.7861 23.9259 30.7861 26.1678C30.7861 28.4096 32.3114 29.981 34.5225 29.981C36.7336 29.981 38.2743 28.4096 38.2743 26.1678C38.2743 23.9247 36.7336 22.3545 34.5225 22.3545ZM34.5225 28.6224C33.2408 28.6224 32.341 27.6162 32.341 26.1666C32.341 24.7181 33.2408 23.7107 34.5225 23.7107C35.8185 23.7107 36.7183 24.7169 36.7183 26.1666C36.7183 27.6162 35.8185 28.6224 34.5225 28.6224Z" fill="#E32459"></path>
        <path d="M16.1756 24.4438C16.1756 23.9247 16.6947 23.5747 17.533 23.5747C18.4174 23.5747 18.9058 23.9555 18.9814 24.581H20.5067C20.3542 23.2082 19.225 22.3545 17.533 22.3545C15.7949 22.3545 14.6964 23.1633 14.6964 24.5348C14.6964 27.3253 19.2865 26.1819 19.2865 27.8137C19.2865 28.393 18.7071 28.7596 17.7151 28.7596C16.632 28.7596 16.0219 28.3327 15.9462 27.6458H14.4209C14.5273 29.0788 15.7629 29.9786 17.7151 29.9786C19.5608 29.9786 20.7657 29.1699 20.7657 27.7214C20.7657 24.9014 16.1756 26.014 16.1756 24.4438Z" fill="#E32459"></path>
        <path d="M41.6132 22.5674H40.0879V28.4392V29.7659H41.6132H45.4111V28.4392H41.6132V22.5674Z" fill="#E32459"></path>
        <path d="M9.41905 22.3545C7.28362 22.3545 5.78906 23.8952 5.78906 26.1973C5.78906 28.5006 7.26825 29.9798 9.51009 29.9798C11.2187 29.9798 12.4531 29.1108 12.8504 27.6469H11.2802C11.1276 28.2571 10.4418 28.6685 9.54202 28.6685C8.30167 28.6685 7.45862 27.9035 7.32264 26.6549H12.9284C12.9592 26.4113 12.9745 26.1973 12.9745 25.9833C12.9722 23.894 11.5545 22.3545 9.41905 22.3545ZM9.41905 23.6658C10.5802 23.6658 11.2932 24.3244 11.3901 25.4193H7.34511C7.52602 24.3126 8.26147 23.6658 9.41905 23.6658Z" fill="#E32459"></path>
      </svg>